# Blender v2.81 (sub 16) OBJ File: 'BladeOfGrass.blend'
# www.blender.org
mtllib LowPolyTree.mtl
o trees
v 0.241672 0.001437 -0.123009
v 0.147146 0.001437 -0.224203
v 0.147146 1.428316 -0.224203
v 0.241673 1.417452 -0.123008
v -0.082726 0.001437 -0.104224
v -0.082726 1.457067 -0.104224
v -0.218074 0.001437 0.116949
v -0.218074 1.474954 0.116949
v -0.123548 0.001437 0.218144
v -0.123548 1.464087 0.218144
v 0.106325 0.001437 0.098165
v 0.106325 1.435336 0.098165
v 0.011799 0.001437 -0.003030
v 0.241672 2.285522 -0.123008
v 0.147146 2.285522 -0.224203
v 0.011799 2.285522 -0.003030
v -0.082726 2.285522 -0.104224
v -0.218074 2.285522 0.116949
v -0.123548 2.285522 0.218144
v 0.106325 2.285522 0.098165
v 1.001313 1.103781 -0.608728
v 0.690695 1.258064 1.145195
v -0.922831 1.434395 0.755905
v -1.019301 1.349416 -0.482207
v -0.113529 1.142470 -1.244584
v -0.091310 1.452363 -1.009915
v 0.860016 1.339610 -0.524299
v -0.873883 1.551425 -0.415373
v -0.839709 1.554265 0.686947
v 0.636677 1.376833 1.054256
v 1.242013 2.066408 0.230906
v 0.745814 1.853636 0.642233
v 0.875934 1.915823 -0.252599
v 0.242619 2.002934 -0.764172
v 0.136381 2.484208 -0.413844
v 0.705222 2.494969 0.128831
v 0.312967 1.684247 -0.996149
v -0.690114 1.899538 -0.953170
v -0.587553 2.067432 -0.814339
v -0.950764 1.928999 0.298625
v -0.888201 2.001766 0.279019
v 0.177300 1.609853 1.113507
v 0.146674 1.876087 0.906893
v 1.175505 2.062886 0.293030
v 0.089834 2.341755 1.195208
v -1.103678 2.268989 0.441462
v -0.429188 2.387657 -0.947816
v 0.312967 2.119747 -0.996149
v 0.251293 2.467423 -0.792777
v 0.888800 2.495185 0.220089
v -0.402100 2.475489 -0.889781
v -0.913171 2.533460 0.365549
v 0.079278 2.541397 1.033114
v 0.926553 2.765592 -0.127185
v 0.387013 3.063194 0.775060
v -0.647876 2.821544 0.764293
v -0.761208 3.112175 -0.334605
v -0.169877 2.826269 -0.886966
v -0.164815 3.192959 -0.715260
v -0.161343 3.444470 -0.597489
v 0.374046 3.396348 -0.302450
v -0.666423 3.346843 -0.289077
v -0.380853 3.513497 0.388029
v -0.144865 4.638119 -0.038557
v -0.534798 3.672721 -0.225854
v -0.613653 3.477491 -0.263730
v -0.394074 3.450494 0.411927
v 0.375050 3.385521 0.518038
v -0.132768 3.348790 -0.312756
v -0.182087 3.439345 -0.075189
v -0.106050 3.435423 -0.255514
v -0.215902 3.501440 0.087705
v 0.025736 3.553973 0.210973
v 0.011799 3.817544 -0.003029
v 0.289733 3.398470 0.067680
v 0.082392 3.419586 -0.235814
v -0.257815 3.443256 0.104405
v 0.033012 3.416354 0.322710
v 0.167522 2.495418 -0.110511
v -0.016591 2.494472 -0.220761
v 0.003148 2.769767 -0.012291
v -0.189420 2.502256 -0.100795
v -0.176132 2.511222 0.136440
v 0.122280 2.507832 0.188268
v 0.011799 3.048579 -0.003030
v -0.329007 2.490676 -0.464359
v -0.445863 2.516261 0.140396
v 0.072913 2.517302 0.409273
v 0.241672 1.951651 -0.123008
v 0.147146 1.966642 -0.224203
v -0.082726 1.973780 -0.104224
v -0.218074 1.965926 0.116949
v -0.123548 1.950935 0.218144
v 0.106325 1.943798 0.098165
v 0.495593 1.947852 -0.306543
v -0.051313 2.010197 -0.587486
v -0.537011 2.019397 -0.260548
v -0.555768 1.963743 0.451388
v 0.409779 1.875710 0.672273
vt 0.811752 0.319846
vt 0.984498 0.557610
vt 0.811752 0.795374
vt 0.532244 0.704556
vt 0.532244 0.410664
vt 0.827254 0.319846
vt 1.000000 0.557610
vt 0.827254 0.795374
vt 0.547746 0.704556
vt 0.547746 0.410664
vt 0.802451 0.319846
vt 0.975197 0.557610
vt 0.802451 0.795374
vt 0.522943 0.704556
vt 0.522943 0.410664
vt 0.650172 0.418456
vt 0.806422 0.418456
vt 0.728297 0.547522
vt 0.572047 0.553772
vt 0.650172 0.689088
vt 0.806422 0.689088
vt 0.884547 0.553772
vt 0.821924 0.774440
vt 0.665674 0.774440
vt 0.743799 0.632874
vt 0.587549 0.639124
vt 0.665674 0.503808
vt 0.821924 0.503808
vt 0.900049 0.639124
vt 0.493799 0.295374
vt 0.593799 0.295374
vt 0.622364 0.390591
vt 0.529188 0.366152
vt 0.693799 0.295374
vt 0.700910 0.366487
vt 0.793799 0.295374
vt 0.789311 0.340257
vt 0.893799 0.295374
vt 0.882014 0.334657
vt 0.993799 0.295374
vt 0.958410 0.366152
vt 0.799350 0.319846
vt 0.879857 0.430653
vt 0.689214 0.355631
vt 0.493799 0.295374
vt 0.533203 0.295374
vt 0.628837 0.412166
vt 0.681750 0.588543
vt 0.602884 0.513544
vt 0.593799 0.295374
vt 0.693799 0.295374
vt 0.701105 0.368432
vt 0.793799 0.295374
vt 0.790549 0.327872
vt 0.893799 0.295374
vt 0.866042 0.387898
vt 0.947195 0.295374
vt 0.493799 0.295374
vt 0.593799 0.295374
vt 0.624516 0.397764
vt 0.555392 0.418560
vt 0.693799 0.295374
vt 0.696870 0.326087
vt 0.793799 0.295374
vt 0.785260 0.380767
vt 0.893799 0.295374
vt 0.873507 0.363013
vt 0.993799 0.295374
vt 0.932206 0.418560
vt 0.493799 0.295374
vt 0.593799 0.295374
vt 0.624157 0.396566
vt 0.644979 0.465974
vt 0.578011 0.463798
vt 0.693799 0.295374
vt 0.701488 0.372267
vt 0.774753 0.485829
vt 0.743799 0.795374
vt 0.712166 0.479045
vt 0.705769 0.415076
vt 0.776488 0.468488
vt 0.793799 0.295374
vt 0.893799 0.295374
vt 0.863100 0.397705
vt 0.993799 0.295374
vt 0.909587 0.463798
vt 0.727408 0.631461
vt 0.743186 0.668151
vt 0.730437 0.661754
vt 0.754005 0.693309
vt 0.770589 0.706075
vt 0.743799 0.795374
vt 0.684090 0.675956
vt 0.708639 0.678175
vt 0.755884 0.674523
vt 0.784576 0.659450
vt 0.803508 0.675956
vt 0.702630 0.713036
vt 0.718423 0.710788
vt 0.743799 0.795374
vt 0.734382 0.701204
vt 0.753480 0.698569
vt 0.769790 0.708738
vt 0.784968 0.713036
vt 0.743799 0.795374
vt 0.719522 0.552605
vt 0.767572 0.557643
vt 0.799189 0.610739
vt 0.884714 0.513544
vt 0.108514 0.631027
vt 0.150181 0.633494
vt 0.150181 0.685979
vt 0.108514 0.685979
vt 0.191847 0.634669
vt 0.191847 0.685979
vt 0.233514 0.633377
vt 0.233514 0.685979
vt 0.275181 0.630909
vt 0.275181 0.685979
vt 0.316847 0.629734
vt 0.316847 0.685979
vt 0.358514 0.631027
vt 0.358514 0.685979
vt 0.620462 0.548699
vt 0.673784 0.561990
vt 0.717384 0.531224
vt 0.773979 0.493577
vt 0.832513 0.499662
vt 0.867137 0.548699
vt 0.972096 0.557610
vt 0.799350 0.795374
vt 0.519843 0.704556
vt 0.519843 0.410664
vt 0.993799 0.295374
vt 0.108514 0.543102
vt 0.150181 0.544891
vt 0.191847 0.549623
vt 0.233514 0.552567
vt 0.275181 0.550778
vt 0.316847 0.546046
vt 0.358514 0.543102
vt 0.108514 0.310039
vt 0.150181 0.310039
vt 0.191847 0.310039
vt 0.233514 0.310039
vt 0.275181 0.310039
vt 0.316847 0.310039
vt 0.358514 0.310039
vn -0.1183 -0.9894 0.0840
vn -0.1324 -0.9907 0.0318
vn -0.0926 -0.9933 0.0687
vn 0.0000 -1.0000 -0.0000
vn 0.0000 1.0000 -0.0000
vn 0.4358 0.5233 -0.7323
vn -0.4562 0.5578 -0.6934
vn -0.8151 0.5789 0.0238
vn -0.1352 0.5629 0.8154
vn 0.8696 0.4810 0.1117
vn 0.3888 -0.9213 -0.0075
vn -0.0171 -0.9994 -0.0302
vn -0.0156 -0.9994 -0.0301
vn 0.5646 0.5636 -0.6030
vn 0.0946 0.5994 -0.7948
vn -0.7694 0.6144 -0.1747
vn -0.3892 0.5364 0.7489
vn 0.3419 0.6004 0.7230
vn 0.7618 0.4224 -0.4911
vn 0.1319 0.5178 -0.8453
vn -0.8049 0.4794 -0.3498
vn -0.4726 0.5403 0.6962
vn 0.6228 0.5127 0.5910
vn 0.5314 0.3038 -0.7908
vn 0.5119 0.3264 -0.7946
vn 0.5172 0.3203 -0.7937
vn -0.5356 0.3642 -0.7619
vn -0.9020 0.3051 0.3053
vn -0.8877 0.3756 0.2663
vn -0.8869 0.3787 0.2646
vn -0.1078 0.5556 0.8245
vn -0.1039 0.4880 0.8666
vn -0.1030 0.4731 0.8749
vn 0.8150 0.5563 0.1622
vn 0.8776 0.4724 0.0818
vn 0.8588 0.5008 0.1083
vn 0.4739 0.3680 -0.8000
vn -0.8749 0.4210 0.2395
vn -0.0961 0.3706 0.9238
vn 0.9230 0.3849 0.0040
vn 0.7308 0.0000 -0.6826
vn -0.4627 0.0000 -0.8865
vn -0.8530 0.0000 -0.5220
vn -0.7308 -0.0000 0.6826
vn 0.4627 -0.0000 0.8865
vn 0.8530 0.0000 0.5220
vn -0.0271 -0.9992 -0.0307
usemtl Tree_Top
s off
f 21/1/1 22/2/1 23/3/1 24/4/1 25/5/1
f 44/6/2 45/7/2 46/8/2 47/9/2 48/10/2
f 54/11/3 55/12/3 56/13/3 57/14/3 58/15/3
s 1
f 2/16/4 1/17/4 13/18/4
f 5/19/4 2/16/4 13/18/4
f 7/20/4 5/19/4 13/18/4
f 9/21/4 7/20/4 13/18/4
f 11/22/4 9/21/4 13/18/4
f 1/17/4 11/22/4 13/18/4
f 14/23/5 15/24/5 16/25/5
f 15/24/5 17/26/5 16/25/5
f 17/26/5 18/27/5 16/25/5
f 18/27/5 19/28/5 16/25/5
f 19/28/5 20/29/5 16/25/5
f 20/29/5 14/23/5 16/25/5
f 21/30/6 25/31/6 26/32/6 27/33/6
f 25/31/7 24/34/7 28/35/7 26/32/7
f 24/34/8 23/36/8 29/37/8 28/35/8
f 23/36/9 22/38/9 30/39/9 29/37/9
f 22/38/10 21/40/10 27/41/10 30/39/10
f 31/42/11 32/43/12 33/44/13
f 31/45/14 33/46/14 34/47/14 35/48/14 36/49/14
f 37/50/15 38/51/15 39/52/15 34/47/15
f 38/51/16 40/53/16 41/54/16 39/52/16
f 40/53/17 42/55/17 43/56/17 41/54/17
f 42/55/18 32/57/18 43/56/18
f 44/58/19 48/59/19 49/60/19 50/61/19
f 48/59/20 47/62/20 51/63/20 49/60/20
f 47/62/21 46/64/21 52/65/21 51/63/21
f 46/64/22 45/66/22 53/67/22 52/65/22
f 45/66/23 44/68/23 50/69/23 53/67/23
f 54/70/24 58/71/24 59/72/24 60/73/25 61/74/26
f 58/71/27 57/75/27 62/76/27 59/72/27
f 63/77/28 64/78/28 65/79/28 66/80/29 67/81/30
f 56/82/31 55/83/31 68/84/32 67/81/33
f 55/83/34 54/85/34 61/86/35 68/84/36
f 69/87/21 70/88/21 71/89/21
f 72/90/22 73/91/22 74/92/22
f 59/72/27 62/76/27 66/80/27 60/73/27
f 75/93/19 76/94/19 74/92/19
f 76/94/20 71/89/20 74/92/20
f 70/88/21 77/95/21 72/90/21
f 77/95/22 78/96/22 73/91/22 72/90/22
f 78/96/23 75/97/23 74/92/23 73/91/23
f 61/74/26 60/73/25 64/78/37
f 67/81/30 66/80/29 62/76/38 57/75/38 56/82/38
f 67/81/33 68/84/32 64/78/39 63/77/39
f 68/84/36 61/86/35 64/78/40
f 71/89/21 70/88/21 72/90/21 74/92/21
f 60/73/27 66/80/27 65/79/27 64/78/27
f 79/98/6 80/99/6 81/100/6
f 80/99/7 82/101/7 81/100/7
f 82/101/8 83/102/8 81/100/8
f 83/102/9 84/103/9 81/100/9
f 84/103/10 79/104/10 81/100/10
f 36/49/14 35/48/14 85/105/14
f 35/48/15 86/106/15 85/105/15
f 86/106/16 87/107/16 85/105/16
f 87/107/17 88/108/17 85/105/17
f 88/108/18 36/109/18 85/105/18
f 50/61/19 49/60/19 76/94/19 75/93/19
f 49/60/20 51/63/20 69/87/20 71/89/20 76/94/20
f 51/63/21 52/65/21 77/95/21 70/88/21 69/87/21
f 52/65/22 53/67/22 78/96/22 77/95/22
f 53/67/23 50/69/23 75/97/23 78/96/23
f 89/110/41 90/111/41 15/112/41 14/113/41
f 90/111/42 91/114/42 17/115/42 15/112/42
f 91/114/43 92/116/43 18/117/43 17/115/43
f 92/116/44 93/118/44 19/119/44 18/117/44
f 93/118/45 94/120/45 20/121/45 19/119/45
f 94/120/46 89/122/46 14/123/46 20/121/46
f 95/124/6 96/125/6 80/99/6 79/98/6
f 96/125/7 97/126/7 82/101/7 80/99/7
f 97/126/8 98/127/8 83/102/8 82/101/8
f 98/127/9 99/128/9 84/103/9 83/102/9
f 99/128/10 95/129/10 79/104/10 84/103/10
f 33/44/13 32/43/12 42/130/47 40/131/47 38/132/47 37/133/47
f 34/47/14 33/46/14 37/50/14
f 34/47/15 39/52/15 86/106/15 35/48/15
f 39/52/16 41/54/16 87/107/16 86/106/16
f 41/54/17 43/56/17 88/108/17 87/107/17
f 43/56/18 32/57/18 31/134/18 36/109/18 88/108/18
f 4/135/41 3/136/41 90/111/41 89/110/41
f 3/136/42 6/137/42 91/114/42 90/111/42
f 6/137/43 8/138/43 92/116/43 91/114/43
f 8/138/44 10/139/44 93/118/44 92/116/44
f 10/139/45 12/140/45 94/120/45 93/118/45
f 12/140/46 4/141/46 89/122/46 94/120/46
f 27/33/6 26/32/6 96/125/6 95/124/6
f 26/32/7 28/35/7 97/126/7 96/125/7
f 28/35/8 29/37/8 98/127/8 97/126/8
f 29/37/9 30/39/9 99/128/9 98/127/9
f 30/39/10 27/41/10 95/129/10 99/128/10
usemtl Buttom
f 1/142/41 2/143/41 3/136/41 4/135/41
f 2/143/42 5/144/42 6/137/42 3/136/42
f 5/144/43 7/145/43 8/138/43 6/137/43
f 7/145/44 9/146/44 10/139/44 8/138/44
f 9/146/45 11/147/45 12/140/45 10/139/45
f 11/147/46 1/148/46 4/141/46 12/140/46
